# xmcd
#
# Track frame offsets:
#	150
#	15380
#	28639
#	38772
#	51468
#	60307
#	78811
#	94203
#
# Disc length: 1432 seconds
#
# Revision: 1
# Processed by: cddbd v1.5.2PL0 Copyright (c) Steve Scherf et al.
# Submitted via: audiograbber 1.83.01
#
DISCID=55059608
DTITLE=Texas Tornado - Texas Tornado
DYEAR=1900
DGENRE=Country
TTITLE0=Waitin' for you
TTITLE1=Calling you
TTITLE2=Hey, good looking
TTITLE3=Major swing
TTITLE4=Jusqu'à lundi
TTITLE5=Peaceful easy feeling
TTITLE6=Dueling banjos
TTITLE7=Avec ma guitare
EXTD=
EXTT0=
EXTT1=
EXTT2=
EXTT3=
EXTT4=
EXTT5=
EXTT6=
EXTT7=
PLAYORDER=
